/vscmnt/brussel_pixiu_data/_data_brussel/112/vsc11236/PredSimResults/SUBJ07opt3D/trackIG/worker_11.mot
version=1
nRows=9
nColumns=50
inDegrees=yes
endheader
                time	         pelvis_tilt	         pelvis_list	     pelvis_rotation	           pelvis_tx	           pelvis_ty	           pelvis_tz	       hip_flexion_r	     hip_adduction_r	      hip_rotation_r	        knee_angle_r	       ankle_angle_r	         mtp_angle_r	       hip_flexion_l	     hip_adduction_l	      hip_rotation_l	        knee_angle_l	       ankle_angle_l	         mtp_angle_l	    lumbar_extension	      lumbar_bending	     lumbar_rotation	 ercspn_r/activation	 intobl_r/activation	 extobl_r/activation	    abd_r/activation	    add_r/activation	hamstrings_r/activation	bifemsh_r/activation	glut_max_r/activation	iliopsoas_r/activation	rect_fem_r/activation	  vasti_r/activation	gastroc_r/activation	 soleus_r/activation	tib_ant_r/activation	 ercspn_l/activation	 intobl_l/activation	 extobl_l/activation	    abd_l/activation	    add_l/activation	hamstrings_l/activation	bifemsh_l/activation	glut_max_l/activation	iliopsoas_l/activation	rect_fem_l/activation	  vasti_l/activation	gastroc_l/activation	 soleus_l/activation	tib_ant_l/activation	
          0.46416404	         -7.16563003	          1.74399182	         -7.70269584	          0.74266246	          0.84179252	          0.00791352	        -12.88842827	         -1.58269857	          3.23740943	        -13.23368897	          2.19837570	         35.44170652	         33.33085521	         -0.74697099	         -3.78380242	         -6.34510910	          4.46500925	          0.32904554	        -13.24527574	         -1.38451167	          3.71808716	          0.10150901	          0.01000007	          0.01000027	          0.01602885	          0.09935060	          0.02870680	          0.11201671	          0.01439472	          0.34578359	          0.07392329	          0.02266633	          0.22040839	          0.20927918	          0.01000001	          0.13319472	          0.10839698	          0.01000016	          0.03181637	          0.20920880	          0.13109900	          0.21203095	          0.11530145	          0.05503381	          0.01000015	          0.01000005	          0.01000031	          0.01000002	          0.53827358	
          0.47344732	         -7.11351799	          1.64972459	         -7.70139479	          0.76042328	          0.83983437	          0.00746999	        -13.73411829	         -1.63201540	          2.96943521	        -13.82696855	          0.89517911	         36.20595390	         33.23517155	         -0.60125928	         -3.54215520	         -8.34464260	          3.89825867	          0.29502725	        -13.02651173	         -1.56167503	          3.90207774	          0.14773027	          0.01000004	          0.01000020	          0.01388115	          0.10816832	          0.02486189	          0.11314279	          0.01246598	          0.39265254	          0.06401831	          0.01962927	          0.19087583	          0.18123810	          0.01000001	          0.11534809	          0.09387466	          0.01000006	          0.07018735	          0.20327310	          0.11353308	          0.18362096	          0.19002357	          0.04765983	          0.01000017	          0.01000003	          0.01333484	          0.01154723	          0.59405239	
          0.48273060	         -7.06278905	          1.55851427	         -7.65658262	          0.77803015	          0.83800339	          0.00699172	        -14.19922351	         -1.65449043	          2.68272112	        -15.11388997	         -0.27125871	         36.62933141	         33.06223950	         -0.48851465	         -3.30882487	        -10.23501510	          3.36749127	          0.28008100	        -12.84070182	         -1.74897731	          4.05195643	          0.17035225	          0.01000002	          0.01000026	          0.01202122	          0.10124537	          0.02153427	          0.09798352	          0.01079568	          0.47200506	          0.05544051	          0.01699914	          0.16530035	          0.15695399	          0.01000002	          0.13867687	          0.08129640	          0.01000006	          0.16314787	          0.22526004	          0.09832078	          0.15901764	          0.22493455	          0.04127388	          0.01000005	          0.01000000	          0.01154812	          0.01000002	          0.72884015	
          0.49201388	         -7.01491450	          1.47094588	         -7.57104896	          0.79529396	          0.83651461	          0.00645372	        -14.21148156	         -1.65427556	          2.40006604	        -17.17682656	         -1.36199218	         36.64566769	         32.88539398	         -0.36874386	         -3.12080533	        -12.04892929	          2.76789837	          0.24709920	        -12.71012805	         -1.94357001	          4.16586226	          0.22303981	          0.01000003	          0.01000013	          0.01041050	          0.09388981	          0.02211080	          0.08485510	          0.01000005	          0.43166815	          0.04801205	          0.01472142	          0.14315172	          0.13592370	          0.01000001	          0.17027295	          0.07040349	          0.01000006	          0.22447390	          0.23109105	          0.08514678	          0.13771087	          0.27759261	          0.03574359	          0.01000009	          0.01000003	          0.01000083	          0.01000003	          0.74437220	
          0.50129716	         -6.96955331	          1.39358374	         -7.45114655	          0.81209415	          0.83554966	          0.00587797	        -13.74285251	         -1.64110078	          2.13723534	        -20.00209812	         -2.53227525	         36.25382873	         32.78069947	         -0.23745480	         -2.95424174	        -13.99458294	          2.53911824	          0.20983576	        -12.64240166	         -2.15386524	          4.24369550	          0.29640889	          0.01000002	          0.01000015	          0.01000001	          0.10779743	          0.02240514	          0.07508458	          0.01000002	          0.37382891	          0.04157894	          0.01274890	          0.12397080	          0.11771126	          0.01000001	          0.19392368	          0.06097012	          0.01000004	          0.27136651	          0.24472678	          0.07373797	          0.11925900	          0.31799157	          0.03095431	          0.01000014	          0.04183134	          0.01000011	          0.01000003	          0.72293954	
          0.51058044	         -6.92779719	          1.32279555	         -7.29562929	          0.82839115	          0.83526438	          0.00528211	        -12.80312668	         -1.61001027	          1.89678013	        -23.49584780	         -3.97710198	         35.42690955	         32.72209673	         -0.09653121	         -2.80399184	        -16.01649488	          2.71052487	          0.17765235	        -12.63201820	         -2.37224217	          4.28412690	          0.34158209	          0.01000002	          0.01000010	          0.01000001	          0.12724293	          0.01981887	          0.07964758	          0.01000001	          0.32373952	          0.03600782	          0.01104067	          0.10735993	          0.10193911	          0.01000001	          0.20149013	          0.05280073	          0.01000004	          0.28577785	          0.26246690	          0.06385783	          0.10327951	          0.32761965	          0.02680674	          0.01000016	          0.06767297	          0.01000006	          0.01000001	          0.62607283	
          0.51986372	         -6.89116096	          1.25105047	         -7.10444702	          0.84423400	          0.83567463	          0.00467403	        -11.43899846	         -1.55326376	          1.69007999	        -27.50645210	         -5.81486904	         34.04915686	         32.63307526	          0.05344901	         -2.64883344	        -17.96769945	          3.22950967	          0.15795097	        -12.66244709	         -2.58378974	          4.29064488	          0.37475733	          0.01000001	          0.01000004	          0.01000000	          0.14262509	          0.01716349	          0.06897595	          0.01000001	          0.28036161	          0.06988780	          0.01000000	          0.09297475	          0.08828027	          0.03361265	          0.17449247	          0.04572595	          0.01000004	          0.30066506	          0.27694921	          0.05530158	          0.08944112	          0.31663346	          0.02321490	          0.01000058	          0.10685480	          0.01000007	          0.01000002	          0.54218522	
          0.52914700	         -6.86236065	          1.17644341	         -6.88156066	          0.85968639	          0.83671158	          0.00405322	         -9.73328369	         -1.46476831	          1.54541557	        -31.84729975	         -7.83583603	         31.70712179	         32.42112365	          0.21940788	         -2.44946302	        -19.69025733	          4.13469171	          0.17741429	        -12.71741308	         -2.77717017	          4.27174654	          0.38033267	          0.03215555	          0.01000014	          0.01000002	          0.13276391	          0.01486399	          0.05973400	          0.01000005	          0.24279592	          0.16895498	          0.01000001	          0.08051705	          0.07645158	          0.21708776	          0.15111220	          0.03959913	          0.01000006	          0.33905758	          0.27852790	          0.06127643	          0.07745695	          0.28958696	          0.02010434	          0.01000013	          0.13006328	          0.01154350	          0.01154706	          0.46953772	
          0.53843028	         -6.84434138	          1.11442413	         -6.63510617	          0.87477636	          0.83824325	          0.00343978	         -7.80845587	         -1.33615759	          1.49776761	        -36.29961564	         -9.21020061	         28.32220989	         32.03958343	          0.41751279	         -2.18421508	        -21.06697223	          5.22326733	          0.25901569	        -12.78623429	         -2.96432682	          4.22934728	          0.35714790	          0.04173627	          0.01000057	          0.01000010	          0.11497489	          0.01287270	          0.05173109	          0.01000007	          0.21026366	          0.16659520	          0.01000001	          0.06972856	          0.06620782	          0.21749881	          0.13086466	          0.03429324	          0.01000007	          0.33226871	          0.24712433	          0.06388596	          0.06707854	          0.25078524	          0.01741056	          0.01000008	          0.15868311	          0.01000031	          0.01000007	          0.40662428	
